<svg version="1.1" id="Layer_1" xmlns="http://www.w3.org/2000/svg" xmlns:xlink="http://www.w3.org/1999/xlink" x="0px" y="0px"
	 width="100%" viewBox="0 0 976 976" enable-background="new 0 0 976 976" xml:space="preserve">
<path fill="#1d4ed8" opacity="1.000000" stroke="none" 
	d="
M508.541443,121.394089 
	C540.159668,121.916367 570.664307,126.713524 600.509460,135.561859 
	C630.489624,144.450195 659.222534,156.277390 685.869507,172.832932 
	C686.969177,173.516159 687.906067,174.461502 688.886658,175.258621 
	C688.259338,178.327118 685.593201,179.216721 683.836609,180.809692 
	C675.338257,188.516220 668.102661,197.127289 663.820129,207.895813 
	C662.265808,211.804138 660.530334,212.265884 656.747314,210.092743 
	C618.274963,187.992752 577.024170,174.140457 532.880066,169.196426 
	C479.825165,163.254425 428.349609,170.294662 379.116913,190.546768 
	C304.016357,221.439758 247.991135,273.362732 211.829712,346.344269 
	C201.510742,367.170166 193.641464,388.892029 188.280075,411.493866 
	C187.154388,416.239380 185.299332,417.768768 180.321259,416.360840 
	C168.693634,413.072327 156.930939,413.605469 145.227890,416.360657 
	C140.085403,417.571320 139.472549,417.091614 140.563675,412.026917 
	C146.548203,384.248322 155.500809,357.462402 167.441666,331.662415 
	C186.917740,289.581421 213.370087,252.454361 247.009628,220.598801 
	C285.544983,184.107056 330.036743,157.253677 380.319855,140.145538 
	C415.258667,128.258072 451.133423,121.687630 488.117920,121.659378 
	C494.773071,121.654289 501.409210,120.470818 508.541443,121.394089 
z"/>
<path fill="#1d4ed8" opacity="1.000000" stroke="none" 
	d="
M590.386353,797.306763 
	C613.652771,790.223450 635.415710,780.671326 656.214600,768.882507 
	C661.582336,765.840088 661.642761,765.849548 663.934937,771.426697 
	C668.726135,783.084351 676.087952,792.800537 685.860352,800.723206 
	C686.869873,801.541626 688.180908,802.121887 688.358826,803.997131 
	C686.115295,806.991760 682.532043,808.531372 679.264465,810.333313 
	C643.716980,829.934937 606.207214,844.279663 566.215271,851.685608 
	C533.444885,857.754333 500.401154,858.786499 467.194366,856.422729 
	C413.979187,852.634705 364.245331,837.318359 317.947510,811.016724 
	C247.781815,771.155884 197.044373,713.688232 164.288345,640.123352 
	C153.896866,616.785767 146.168655,592.573608 140.721954,567.633667 
	C139.459167,561.851440 139.927032,561.786926 145.764099,563.087891 
	C157.444702,565.691162 169.256638,566.202881 180.871140,562.949463 
	C185.457870,561.664612 186.974686,562.889893 188.070648,567.284851 
	C207.072159,643.482239 248.396835,704.857910 311.566467,751.333496 
	C342.440399,774.048279 376.560852,790.318542 413.706116,800.287292 
	C443.182465,808.197937 473.078918,812.228210 503.562347,811.736816 
	C533.068604,811.261292 561.805664,805.904602 590.386353,797.306763 
z"/>
<path fill="#1d4ed8" opacity="1.000000" stroke="none" 
	d="
M555.221802,640.756470 
	C585.804932,663.445374 618.668274,681.204651 653.963135,694.482117 
	C657.543701,695.829224 661.186157,697.011719 664.800720,698.268433 
	C667.818115,699.317627 668.484192,701.018799 666.969238,704.008484 
	C661.879822,714.052551 664.769348,713.520752 653.655945,709.436401 
	C605.342407,691.680420 561.065979,666.736084 522.710266,632.261475 
	C513.492126,623.976013 504.717346,620.721008 492.398285,620.775391 
	C468.964691,620.878845 447.030334,613.552124 427.595184,600.316223 
	C419.244812,594.629456 410.932343,591.135803 400.702484,590.331177 
	C377.886871,588.536621 355.807922,582.608582 333.942322,576.023499 
	C298.876953,565.463196 265.524048,550.877991 233.548889,533.092834 
	C231.640213,532.031189 228.403030,531.299500 229.190430,528.410217 
	C230.176346,524.792542 231.559052,520.956055 234.625702,518.539001 
	C236.149734,517.337769 238.076248,519.194580 239.588501,520.079895 
	C261.501648,532.908813 284.482361,543.503784 308.196411,552.473389 
	C336.286560,563.098145 365.000793,571.492920 394.917419,575.224854 
	C395.396912,575.284668 395.890381,575.232361 396.702301,575.232361 
	C355.930664,518.393555 356.131622,461.675690 397.112640,404.340454 
	C390.440125,404.088318 384.334137,405.707123 378.326202,406.910797 
	C329.265778,416.739868 282.887115,433.824951 239.528076,458.920929 
	C236.622437,460.602661 233.994385,462.706055 231.536758,457.834961 
	C227.320221,449.477783 227.095459,449.629456 232.770370,446.399628 
	C278.320923,420.474915 326.768188,402.341553 378.231415,392.336212 
	C389.183380,390.206970 400.218170,388.587524 411.350525,387.788239 
	C413.818573,387.611023 415.818146,386.819366 417.723938,385.342682 
	C442.872955,365.856628 471.440338,357.174988 503.112213,358.715454 
	C507.839325,358.945374 511.222412,357.543671 514.659485,354.347168 
	C555.481018,316.382385 602.490601,288.560486 654.734436,269.399139 
	C655.203613,269.227051 655.669617,269.045502 656.142334,268.883667 
	C662.233093,266.798553 667.883484,270.866333 667.776062,277.336548 
	C667.732056,279.985596 665.308777,280.271210 663.558716,280.939697 
	C649.240112,286.409088 635.002258,292.053711 621.169983,298.692352 
	C587.910400,314.654755 557.592957,335.027100 529.858093,359.306915 
	C529.249207,359.839935 528.305664,359.990784 527.518250,360.319885 
	C527.784180,360.735474 528.050110,361.151062 528.316101,361.566650 
	C533.300171,363.281067 538.347717,364.831818 543.258301,366.735748 
	C582.900391,382.105957 609.055115,410.331451 622.659119,450.408875 
	C624.985413,457.262115 632.328430,469.492828 638.002441,475.289886 
	C640.227905,475.146881 640.796265,473.157440 641.686707,471.679993 
	C661.467529,438.862000 677.247986,404.232666 688.743408,367.660858 
	C694.292603,350.006592 698.621704,332.047516 702.130310,313.894501 
	C702.949951,309.653320 704.242493,308.281830 708.692261,310.054596 
	C716.488647,313.160583 716.623169,312.909332 714.944275,321.334290 
	C703.968079,376.416016 683.727905,427.930573 655.242249,476.266174 
	C654.481140,477.557648 653.879150,479.004608 652.885010,480.086884 
	C646.601257,486.927521 648.651855,492.898834 653.069153,500.256653 
	C681.672852,547.901917 702.033997,598.905884 713.651123,653.321167 
	C713.963196,654.783081 714.084595,656.286438 714.410217,657.744690 
	C716.919861,668.984009 716.690857,666.718445 707.070923,670.482300 
	C703.288391,671.962219 702.428528,670.455322 701.782593,667.254578 
	C698.589722,651.432495 695.437683,635.609497 690.778259,620.114807 
	C679.020142,581.013733 662.880188,543.853210 642.017334,508.752533 
	C641.024658,507.082489 640.389709,505.056732 637.843201,503.973083 
	C631.453918,512.496582 625.389099,520.962402 621.700806,531.497070 
	C606.629883,574.543518 576.835876,602.629456 533.121521,615.848450 
	C531.544250,616.325317 529.812134,616.380859 527.969177,617.990784 
	C536.643066,625.975708 545.506897,633.583679 555.221802,640.756470 
M567.097900,395.408325 
	C551.424500,384.158875 534.215027,376.733521 515.041809,373.778229 
	C484.041992,369.000000 455.607147,375.729675 430.217957,393.663544 
	C386.776245,424.348877 369.726349,480.225952 387.711517,530.428162 
	C406.204437,582.047668 459.952667,614.014160 514.193115,605.593262 
	C541.842346,601.300720 565.371460,589.180115 584.158081,568.272217 
	C611.017334,538.380127 620.061523,503.381531 612.114197,464.386963 
	C606.335510,436.032867 590.421021,413.546387 567.097900,395.408325 
z"/>
<path fill="#1d4ed8" opacity="1.000000" stroke="none" 
	d="
M802.450989,363.487976 
	C794.104126,344.129120 784.498169,325.879791 772.947388,308.681854 
	C771.407532,306.389160 770.453552,304.506744 773.680115,302.569031 
	C785.236389,295.628906 794.069885,286.062042 800.341431,274.125244 
	C800.722351,273.400269 801.242798,272.737793 801.770630,272.106689 
	C801.952881,271.888794 802.355225,271.854950 803.779785,271.298401 
	C848.547852,334.816833 872.361389,405.215820 873.175720,483.338348 
	C874.038452,566.110779 851.077637,641.314087 803.498535,708.689270 
	C800.449768,708.009949 800.057007,706.426392 799.413025,705.127563 
	C793.556641,693.314636 784.944214,683.995972 773.704712,677.197815 
	C770.495667,675.256836 770.171936,673.808228 772.333008,670.627136 
	C801.220825,628.104553 818.754456,581.275635 824.877747,530.234741 
	C828.849915,497.124756 828.274597,464.029144 822.482361,431.201508 
	C818.399902,408.064484 811.717468,385.559540 802.450989,363.487976 
z"/>
<path fill="#1d4ed8" opacity="1.000000" stroke="none" 
	d="
M155.804749,431.594482 
	C185.672226,427.155212 216.264221,449.421539 221.145355,478.774628 
	C227.182236,515.077942 201.800674,547.471558 165.079178,548.758972 
	C140.298874,549.627747 116.417488,535.526794 107.212585,507.422058 
	C95.930832,472.976135 119.492722,436.023224 155.804749,431.594482 
z"/>
<path fill="#1d4ed8" opacity="1.000000" stroke="none" 
	d="
M683.112549,208.189896 
	C695.607239,186.543762 721.983093,175.918121 745.649902,181.077759 
	C770.366821,186.466309 788.555908,205.690460 791.889343,230.794693 
	C795.856384,260.670898 776.653992,287.866455 747.619568,295.660339 
	C721.091003,302.781616 691.016174,288.518555 679.901794,262.674347 
	C671.937500,244.155014 673.014771,226.061096 683.112549,208.189896 
z"/>
<path fill="#1d4ed8" opacity="1.000000" stroke="none" 
	d="
M738.734985,682.741333 
	C771.697021,687.641174 792.435059,711.259521 792.220764,743.144897 
	C792.036316,770.593323 769.877747,795.880493 742.543823,799.218445 
	C717.708435,802.251160 697.232361,794.247375 683.985962,772.462341 
	C670.884155,750.914978 670.767334,728.503052 685.155518,707.526611 
	C697.698547,689.240295 716.133728,681.512512 738.734985,682.741333 
z"/>
<path fill="#1d4ed8" opacity="1.000000" stroke="none" 
	d="
M540.649170,546.728760 
	C514.721802,564.871277 487.862762,566.322632 460.977722,550.872009 
	C438.103729,537.726501 426.911407,516.766113 426.721466,490.432983 
	C426.506287,460.599030 440.097565,438.328827 466.652832,425.260529 
	C505.175903,406.302673 554.466858,426.128754 566.207458,470.548065 
	C574.272156,501.059998 564.391418,526.189636 540.649170,546.728760 
z"/>
</svg>